<?xml version="1.0" encoding="UTF-8" standalone="no"?>
<!-- Created with Inkscape (http://www.inkscape.org/) -->

<svg
   width="95.344765mm"
   height="89.05584mm"
   viewBox="0 0 95.344764 89.055841"
   version="1.1"
   id="svg1"
   xml:space="preserve"
   xmlns="http://www.w3.org/2000/svg"
   xmlns:svg="http://www.w3.org/2000/svg"><defs
     id="defs1" /><g
     id="layer1"
     transform="translate(-57.305318,-76.462565)"><g
       id="g4"
       transform="translate(-72.143007,-2.0512458)"><path
         style="fill:#5fc1e7"
         d="m 174.87176,167.4968 c -2.06864,-0.31972 -4.77652,-1.49788 -23.54791,-10.2454 -12.58712,-5.86563 -20.42997,-9.66478 -20.96823,-10.15723 -0.67994,-0.62205 -0.8599,-0.99614 -0.8599,-1.7875 0,-0.79191 0.17949,-1.16447 0.8599,-1.78484 0.72629,-0.66221 12.14948,-6.2215 14.62134,-7.11573 0.74186,-0.26837 1.7045,0.13469 13.94467,5.83879 13.5682,6.32297 15.06362,6.88905 18.19909,6.88905 3.13547,0 4.63089,-0.56608 18.19909,-6.88905 12.24017,-5.7041 13.20281,-6.10716 13.94467,-5.83879 2.47186,0.89423 13.89505,6.45352 14.62134,7.11573 0.68041,0.62037 0.8599,0.99293 0.8599,1.78484 0,0.79136 -0.17996,1.16545 -0.8599,1.7875 -0.91526,0.83735 -40.00509,19.204 -42.39948,19.92171 -1.37707,0.41278 -5.2388,0.69355 -6.61458,0.48092 z m 0,-22.48959 c -0.43656,-0.0675 -1.38906,-0.29075 -2.11666,-0.49618 -2.24841,-0.6348 -41.45142,-19.04163 -42.39948,-19.90765 -1.22006,-1.11448 -1.20906,-2.45827 0.0295,-3.60713 0.9095,-0.84362 13.94451,-7.0427 14.80891,-7.0427 0.24909,0 6.43316,2.78527 13.74238,6.18949 7.3509,3.42363 13.91604,6.32033 14.69158,6.48229 0.77115,0.16104 2.34287,0.2928 3.49271,0.2928 1.14984,0 2.72156,-0.13176 3.49271,-0.2928 0.77554,-0.16196 7.34067,-3.05866 14.69158,-6.48229 7.30922,-3.40422 13.49329,-6.18949 13.74238,-6.18949 0.8644,0 13.89941,6.19908 14.80891,7.0427 1.23858,1.14886 1.24958,2.49265 0.0295,3.60713 -0.91962,0.84005 -40.02909,19.21948 -42.39879,19.92526 -1.38004,0.41101 -5.24381,0.69054 -6.61527,0.47857 z m -1.45521,-22.3743 c -0.97598,-0.21296 -34.13069,-15.44935 -40.61354,-18.66413 -2.52822,-1.25372 -3.30729,-2.02435 -3.30729,-3.27147 0,-0.749973 0.18755,-1.163425 0.78246,-1.72492 0.94854,-0.895267 40.72453,-19.509932 42.91198,-20.082268 1.91767,-0.501748 5.94345,-0.501748 7.86112,0 2.18745,0.572336 41.96344,19.187001 42.91198,20.082268 1.06601,1.006141 1.08891,2.42352 0.0549,3.39464 -0.95321,0.8952 -1.29536,1.06113 -23.21718,11.25914 -10.73592,4.99434 -19.38621,8.86413 -20.1875,9.03108 -1.6795,0.34993 -5.54152,0.33686 -7.19688,-0.0243 z"
         id="path6" /><path
         style="fill:#e26438"
         d="m 174.87176,167.4968 c -2.06864,-0.31972 -4.77652,-1.49788 -23.54791,-10.2454 -12.58712,-5.86563 -20.42997,-9.66478 -20.96823,-10.15723 -0.67994,-0.62205 -0.8599,-0.99614 -0.8599,-1.7875 0,-0.79191 0.17949,-1.16447 0.8599,-1.78484 0.72629,-0.66221 12.14948,-6.2215 14.62134,-7.11573 0.74186,-0.26837 1.7045,0.13469 13.94467,5.83879 13.5682,6.32297 15.06362,6.88905 18.19909,6.88905 3.13547,0 4.63089,-0.56608 18.19909,-6.88905 12.24017,-5.7041 13.20281,-6.10716 13.94467,-5.83879 2.47186,0.89423 13.89505,6.45352 14.62134,7.11573 0.68041,0.62037 0.8599,0.99293 0.8599,1.78484 0,0.79136 -0.17996,1.16545 -0.8599,1.7875 -0.91526,0.83735 -40.00509,19.204 -42.39948,19.92171 -1.37707,0.41278 -5.2388,0.69355 -6.61458,0.48092 z m 0,-22.48959 c -0.43656,-0.0675 -1.38906,-0.29075 -2.11666,-0.49618 -2.24841,-0.6348 -41.45142,-19.04163 -42.39948,-19.90765 -1.22006,-1.11448 -1.20906,-2.45827 0.0295,-3.60713 0.9095,-0.84362 13.94451,-7.0427 14.80891,-7.0427 0.24909,0 6.43316,2.78527 13.74238,6.18949 7.3509,3.42363 13.91604,6.32033 14.69158,6.48229 0.77115,0.16104 2.34287,0.2928 3.49271,0.2928 1.14984,0 2.72156,-0.13176 3.49271,-0.2928 0.77554,-0.16196 7.34067,-3.05866 14.69158,-6.48229 7.30922,-3.40422 13.49329,-6.18949 13.74238,-6.18949 0.8644,0 13.89941,6.19908 14.80891,7.0427 1.23858,1.14886 1.24958,2.49265 0.0295,3.60713 -0.91962,0.84005 -40.02909,19.21948 -42.39879,19.92526 -1.38004,0.41101 -5.24381,0.69054 -6.61527,0.47857 z"
         id="path5" /><path
         style="fill:#8db528"
         d="m 174.87176,145.00721 c -0.43656,-0.0675 -1.38906,-0.29075 -2.11666,-0.49618 -2.24841,-0.6348 -41.45142,-19.04163 -42.39948,-19.90765 -1.22006,-1.11448 -1.20906,-2.45827 0.0295,-3.60713 0.9095,-0.84362 13.94451,-7.0427 14.80891,-7.0427 0.24909,0 6.43316,2.78527 13.74238,6.18949 7.3509,3.42363 13.91604,6.32033 14.69158,6.48229 0.77115,0.16104 2.34287,0.2928 3.49271,0.2928 1.14984,0 2.72156,-0.13176 3.49271,-0.2928 0.77554,-0.16196 7.34067,-3.05866 14.69158,-6.48229 7.30922,-3.40422 13.49329,-6.18949 13.74238,-6.18949 0.8644,0 13.89941,6.19908 14.80891,7.0427 1.23858,1.14886 1.24958,2.49265 0.0295,3.60713 -0.91962,0.84005 -40.02909,19.21948 -42.39879,19.92526 -1.38004,0.41101 -5.24381,0.69054 -6.61527,0.47857 z"
         id="path4" /></g></g></svg>
