<?xml version="1.0" encoding="UTF-8" standalone="no"?>
<!-- Created with Inkscape (http://www.inkscape.org/) -->

<svg
   width="314.81601mm"
   height="360.93625mm"
   viewBox="0 0 314.81601 360.93625"
   version="1.1"
   id="svg1"
   xml:space="preserve"
   xmlns="http://www.w3.org/2000/svg"
   xmlns:svg="http://www.w3.org/2000/svg"
>
<defs
     id="defs1" /><g
     id="layer1"
     transform="translate(-233.55697,-30.058588)"><path
       style="fill:#f9f9f9"
       d="M 405.15445,390.71061 C 264.09414,382.32369 186.11192,225.56099 265.00202,108.9711 325.67224,19.307954 451.58564,3.3721345 533.47737,74.99239 c 4.22638,3.696273 15.00204,14.49191 14.89482,14.922423 -0.043,0.172573 -29.04011,27.384287 -64.43805,60.470477 -35.39794,33.08618 -64.35989,60.23011 -64.35989,60.31982 0,0.0897 26.38827,29.85987 58.6406,66.15589 l 58.64061,65.99278 -1.55675,1.42196 c -34.71888,31.71266 -83.7177,49.19521 -130.14426,46.43487 z m 22.09271,-7.77085 c 33.7097,-2.61604 65.79995,-14.88715 92.20729,-35.25951 4.48144,-3.45728 6.71993,-5.30794 6.6616,-5.50747 -0.0259,-0.0884 -26.35983,-29.766 -58.51993,-65.95012 -32.1601,-36.18412 -58.47292,-65.88282 -58.47292,-65.9971 0,-0.11428 28.96196,-27.28298 64.3599,-60.37489 35.39794,-33.0919 64.3599,-60.253383 64.3599,-60.358847 0,-0.105465 -1.93477,-2.006438 -4.29948,-4.224386 C 424.6932,-16.827104 248.27634,54.755882 241.46015,203.78332 c -4.67938,102.30876 83.26324,187.11279 185.78701,179.15644 z"
       id="path6" /></g></svg>
