<?xml version="1.0" encoding="UTF-8" standalone="no"?>
<!-- Created with Inkscape (http://www.inkscape.org/) -->

<svg
   width="3.7041664mm"
   height="3.7041667mm"
   viewBox="0 0 3.7041664 3.7041667"
   version="1.1"
   id="svg1"
   xmlns:xlink="http://www.w3.org/1999/xlink"
   xmlns="http://www.w3.org/2000/svg"
   xmlns:svg="http://www.w3.org/2000/svg">
  <defs
     id="defs1">
    <linearGradient
       xlink:href="#linearGradient5792"
       id="linearGradient5786"
       gradientUnits="userSpaceOnUse"
       gradientTransform="matrix(0.26458333,0,0,0.26458333,144.93322,89.556331)"
       x1="97.220901"
       y1="122.51936"
       x2="111.2209"
       y2="122.51936" />
    <linearGradient
       id="linearGradient5792">
      <stop
         style="stop-color:#0066ff;stop-opacity:1"
         offset="0"
         id="stop5788" />
      <stop
         style="stop-color:#00ccff;stop-opacity:1"
         offset="1"
         id="stop5790" />
    </linearGradient>
  </defs>
  <g
     id="layer1"
     transform="translate(-170.65625,-120.12083)">
    <rect
       style="fill:url(#linearGradient5786);fill-opacity:1;stroke:none;stroke-width:0.264583;stroke-linecap:round;stroke-linejoin:round;stroke-dasharray:none"
       id="rect5784"
       width="3.7041664"
       height="3.7041667"
       x="170.65625"
       y="120.12083"
       rx="1.8520832"
       ry="1.8520833" />
    <path
       id="path5682"
       style="color:#000000;fill:#ffffff;stroke-width:0.264582;stroke-linecap:round;stroke-linejoin:round;-inkscape-stroke:none"
       d="m 172.52011,120.81507 c -0.0189,0.003 -0.037,0.0105 -0.0531,0.0208 -0.0679,0.0436 -0.0875,0.13392 -0.0438,0.20165 0.24072,0.37278 0.29753,0.65396 0.2729,0.90037 -0.0996,0.47188 -0.31621,0.56759 -0.50547,0.56759 -0.1848,0 -0.1353,-0.3041 0.004,-0.3931 0.0829,-0.0518 0.18912,-0.0854 0.27064,-0.0854 0.0808,2e-5 0.14624,-0.0653 0.14626,-0.14581 -2e-5,-0.0805 -0.0655,-0.14582 -0.14626,-0.1458 -0.0952,0 -0.18861,0.02 -0.27577,0.054 0.0178,-0.084 0.0244,-0.17483 10e-4,-0.27139 -0.035,-0.14658 -0.13559,-0.28661 -0.31033,-0.42233 -0.0306,-0.0238 -0.0694,-0.0345 -0.10792,-0.0297 -0.0385,0.005 -0.0735,0.0246 -0.0974,0.0551 -0.0496,0.0636 -0.0381,0.15523 0.0257,0.20468 0.14235,0.11057 0.18936,0.1924 0.20543,0.25977 0.0161,0.0674 0.003,0.13964 -0.0291,0.23894 -0.0413,0.13382 -0.0892,0.25328 -0.11019,0.36784 -0.0103,0.0564 -0.0112,0.11777 -0.0139,0.16679 -0.1025,-0.0999 -0.14263,-0.23184 -0.14263,-0.42459 -3e-5,-0.0806 -0.0655,-0.14582 -0.14627,-0.14581 -0.0807,7e-5 -0.14609,0.0653 -0.14611,0.14581 0,0.26326 0.077,0.51377 0.28332,0.68089 0.18679,0.17796 0.66177,0.11219 0.66177,0.39785 0,0.0806 0.11803,0.11989 0.19878,0.11989 0.0828,0 0.18704,-0.0554 0.18704,-0.11989 0,-0.32413 0.3416,-0.52112 0.90393,-0.52026 0.0808,1e-4 0.14631,-0.0651 0.14641,-0.14566 1.6e-4,-0.0805 -0.0652,-0.14595 -0.14596,-0.14611 -0.0384,-5e-5 -0.0759,0.001 -0.1129,0.003 0.0629,-0.14787 0.0907,-0.31065 0.085,-0.48648 -0.003,-0.0805 -0.0702,-0.14361 -0.15094,-0.14098 -0.0808,0.003 -0.1441,0.0701 -0.14144,0.15064 0.008,0.23021 -0.001,0.43579 -0.17252,0.54414 -0.0488,0.0308 -0.10548,0.0575 -0.15925,0.0575 0.0417,-0.11354 0.0733,-0.23338 0.0862,-0.36256 0.008,-0.0824 0.009,-0.18038 -3e-4,-0.25645 -0.0146,-0.11789 -0.0322,-0.25157 0.0125,-0.35227 0.0402,-0.0867 0.13027,-0.12304 0.26248,-0.12304 0.0807,-8e-5 0.1461,-0.0653 0.14612,-0.14581 5e-5,-0.0806 -0.0653,-0.14589 -0.14612,-0.14596 -0.19649,0 -0.34544,0.10342 -0.42988,0.22837 -0.0442,-0.0943 -0.0979,-0.19149 -0.16286,-0.29207 -0.021,-0.0325 -0.0541,-0.0554 -0.0919,-0.0636 -0.0188,-0.004 -0.0382,-0.004 -0.0571,-10e-4 z" />
  </g>
</svg>
