<?xml version="1.0" encoding="UTF-8" standalone="no"?>
<!-- Created with Inkscape (http://www.inkscape.org/) -->

<svg
   width="74.130234mm"
   height="68.768417mm"
   viewBox="0 0 74.130234 68.768417"
   version="1.1"
   id="svg1"
   xml:space="preserve"
   xmlns="http://www.w3.org/2000/svg"
   xmlns:svg="http://www.w3.org/2000/svg"><defs
     id="defs1" /><g
     id="layer1"
     transform="translate(-402.95368,-220.55552)"><path
       style="fill:#000000"
       d="m 406.17092,288.84212 c -2.2683,-1.03046 -3.69813,-3.76572 -3.06797,-5.869 0.4034,-1.34643 32.33588,-59.89118 33.14847,-60.77414 0.84315,-0.91617 2.51968,-1.64346 3.78843,-1.64346 1.25573,0 2.94354,0.72518 3.76367,1.61709 0.82471,0.89691 32.82755,59.63142 33.15585,60.85063 0.56552,2.10016 -0.85554,4.82202 -3.03413,5.81152 -1.02917,0.46744 -2.53562,0.48918 -33.88539,0.48918 -31.16905,0 -32.86132,-0.0241 -33.86893,-0.48182 z m 38.71081,-10.40739 c 0.44665,-0.44665 0.44665,-9.50168 0,-9.94833 -0.2223,-0.2223 -1.68026,-0.3175 -4.8624,-0.3175 -3.90486,0 -4.59603,0.0616 -4.90802,0.43754 -0.2758,0.33232 -0.36312,1.49963 -0.36312,4.85412 0,3.3545 0.0873,4.52181 0.36312,4.85413 0.31199,0.37592 1.00316,0.43754 4.90802,0.43754 3.18214,0 4.6401,-0.0952 4.8624,-0.3175 z m -0.12721,-15.88823 c 0.39625,-0.29111 0.4985,-1.49976 0.85356,-10.08927 0.37727,-9.12693 0.37444,-9.79051 -0.0437,-10.2526 -0.40695,-0.44967 -0.90338,-0.49407 -5.52449,-0.49407 -4.65412,0 -5.11532,0.042 -5.53278,0.50324 -0.42789,0.47281 -0.43273,1.08809 -0.0801,10.17837 0.26993,6.95879 0.46966,9.78883 0.71139,10.0801 0.27716,0.33395 1.11024,0.40496 4.75104,0.40496 3.11547,0 4.54745,-0.0973 4.86513,-0.33073 z"
       id="path1" /></g></svg>
